<?xml version="1.0"?>
<svg xmlns="http://www.w3.org/2000/svg" id="Layer_1" data-name="Layer 1" viewBox="0 0 512 512" width="512" height="512"><title>Currency Exchange 5</title><path d="M496,433.5v31.25A31.249,31.249,0,0,1,464.75,496H371a31.249,31.249,0,0,1-31.25-31.25V433.5Z" style="fill:#cc7350"/><polygon points="496 378.81 496 433.5 339.75 433.5 339.75 251.47 496 251.47 496 285.06 496 378.81" style="fill:#f8ec7d"/><path d="M496,246v5.47H339.75V246A31.249,31.249,0,0,1,371,214.75h93.75A31.249,31.249,0,0,1,496,246Z" style="fill:#cc7350"/><polygon points="252.59 454.7 245.76 422.45 285.17 448.1 259.53 487.51 252.59 454.7" style="fill:#6fe3ff"/><polygon points="260.99 48.81 267.82 81.06 228.41 55.42 254.05 16 260.99 48.81" style="fill:#6fe3ff"/><path d="M172.25,234.75V266A31.249,31.249,0,0,1,141,297.25H47.25A31.249,31.249,0,0,1,16,266V234.75Z" style="fill:#cc7350"/><polygon points="172.25 180.06 172.25 234.75 16 234.75 16 52.72 172.25 52.72 172.25 86.31 172.25 180.06" style="fill:#f8ec7d"/><path d="M172.25,47.25v5.47H16V47.25A31.249,31.249,0,0,1,47.25,16H141A31.249,31.249,0,0,1,172.25,47.25Z" style="fill:#cc7350"/><path d="M464.75,208.75H371A37.292,37.292,0,0,0,333.75,246V464.75A37.292,37.292,0,0,0,371,502h93.75A37.292,37.292,0,0,0,502,464.75V246A37.292,37.292,0,0,0,464.75,208.75ZM490,257.47V427.5H345.75V257.47ZM371,220.75h93.75a25.274,25.274,0,0,1,25.236,24.72H345.764A25.274,25.274,0,0,1,371,220.75ZM464.75,490H371a25.278,25.278,0,0,1-25.25-25.25V439.5H490v25.25A25.278,25.278,0,0,1,464.75,490Z" style="fill:#63316d"/><path d="M432.33,458.75H403.42a6,6,0,0,0,0,12h28.91a6,6,0,0,0,0-12Z" style="fill:#63316d"/><path d="M178.25,266V47.25A37.292,37.292,0,0,0,141,10H47.25A37.292,37.292,0,0,0,10,47.25V266a37.292,37.292,0,0,0,37.25,37.25H141A37.292,37.292,0,0,0,178.25,266Zm-12-207.28V228.75H22V58.72ZM47.25,22H141a25.274,25.274,0,0,1,25.236,24.72H22.014A25.274,25.274,0,0,1,47.25,22ZM22,266V240.75H166.25V266A25.278,25.278,0,0,1,141,291.25H47.25A25.278,25.278,0,0,1,22,266Z" style="fill:#63316d"/><path d="M108.58,260H79.67a6,6,0,0,0,0,12h28.91a6,6,0,0,0,0-12Z" style="fill:#63316d"/><path d="M166.782,430.3A122.7,122.7,0,0,1,111.156,331.7a6,6,0,1,0-11.992.409,134.346,134.346,0,0,0,148.7,129.244l5.8,27.4a6,6,0,0,0,10.9,2.031l25.639-39.41a6,6,0,0,0-1.757-8.3l-39.41-25.65a6,6,0,0,0-9.142,6.272l5.471,25.85A122.309,122.309,0,0,1,166.782,430.3Zm110.087,19.555L262.4,472.093l-3.909-18.468c-.018-.1-.041-.2-.064-.306l-3.8-17.936Z" style="fill:#63316d"/><path d="M402.424,171.814a6,6,0,0,0,5.992,5.8c.069,0,.139,0,.208,0a6,6,0,0,0,5.792-6.2A134.478,134.478,0,0,0,265.72,42.16l-5.8-27.4a6,6,0,0,0-10.9-2.029l-25.64,39.419a6,6,0,0,0,1.757,8.3l39.41,25.64a6,6,0,0,0,9.142-6.272l-5.471-25.849a122.479,122.479,0,0,1,134.2,117.846ZM236.711,53.662l14.468-22.244,3.907,18.46c.019.109.043.216.068.322l3.8,17.93Z" style="fill:#63316d"/><path d="M94.12,152.08a18,18,0,0,1,.1,35.995c-.034,0-.068,0-.1,0s-.067,0-.1,0a18.018,18.018,0,0,1-17.9-17.995,6,6,0,0,0-12,0,30.05,30.05,0,0,0,24,29.4v8.884a6,6,0,0,0,12,0v-8.884a30,30,0,0,0-6-59.4,18,18,0,1,1,18-18,6,6,0,0,0,12,0,30.05,30.05,0,0,0-24-29.4V84.89a6,6,0,1,0-12,0v7.794a30,30,0,0,0,6,59.4Z" style="fill:#63316d"/><path d="M417.88,350.83a18,18,0,0,1,.1,36c-.034,0-.067,0-.1,0s-.068,0-.1,0a18.017,18.017,0,0,1-17.9-18,6,6,0,0,0-12,0,30.05,30.05,0,0,0,24,29.4v8.884a6,6,0,0,0,12,0v-8.884a30,30,0,0,0-6-59.4,18,18,0,1,1,18-18,6,6,0,1,0,12,0,30.05,30.05,0,0,0-24-29.4V283.64a6,6,0,0,0-12,0v7.794a30,30,0,0,0,6,59.4Z" style="fill:#63316d"/></svg>
